<mxfile host="app.diagrams.net" modified="2022-07-12T15:39:15.688Z" agent="5.0 (Windows NT 10.0; Win64; x64) AppleWebKit/537.36 (KHTML, like Gecko) Chrome/100.0.4896.160 YaBrowser/22.5.4.904 Yowser/2.5 Safari/537.36" etag="aK8xB4VW-lzgP9RUouj9" version="20.0.4" type="github">
  <diagram id="C5RBs43oDa-KdzZeNtuy" name="Page-1">
    <mxGraphModel dx="1038" dy="567" grid="1" gridSize="10" guides="1" tooltips="1" connect="1" arrows="1" fold="1" page="1" pageScale="1" pageWidth="827" pageHeight="1169" math="0" shadow="0">
      <root>
        <mxCell id="WIyWlLk6GJQsqaUBKTNV-0" />
        <mxCell id="WIyWlLk6GJQsqaUBKTNV-1" parent="WIyWlLk6GJQsqaUBKTNV-0" />
        <mxCell id="vWjAeTqxgq-_ZIZqtNwN-13" value="" style="edgeStyle=orthogonalEdgeStyle;rounded=0;orthogonalLoop=1;jettySize=auto;html=1;fontColor=#0A0A0A;" edge="1" parent="WIyWlLk6GJQsqaUBKTNV-1" source="vWjAeTqxgq-_ZIZqtNwN-10" target="vWjAeTqxgq-_ZIZqtNwN-11">
          <mxGeometry relative="1" as="geometry" />
        </mxCell>
        <mxCell id="vWjAeTqxgq-_ZIZqtNwN-10" value="&lt;font color=&quot;#0a0a0a&quot; face=&quot;Consolas, Courier New, monospace&quot;&gt;&lt;span style=&quot;font-size: 14px;&quot;&gt;MethodArray&lt;/span&gt;&lt;/font&gt;" style="ellipse;whiteSpace=wrap;html=1;" vertex="1" parent="WIyWlLk6GJQsqaUBKTNV-1">
          <mxGeometry x="330" y="50" width="120" height="80" as="geometry" />
        </mxCell>
        <mxCell id="vWjAeTqxgq-_ZIZqtNwN-14" value="" style="edgeStyle=orthogonalEdgeStyle;rounded=0;orthogonalLoop=1;jettySize=auto;html=1;fontColor=#0A0A0A;" edge="1" parent="WIyWlLk6GJQsqaUBKTNV-1" source="vWjAeTqxgq-_ZIZqtNwN-11" target="vWjAeTqxgq-_ZIZqtNwN-12">
          <mxGeometry relative="1" as="geometry" />
        </mxCell>
        <mxCell id="vWjAeTqxgq-_ZIZqtNwN-11" value="string[] array&lt;br&gt;string[] newarr&lt;br&gt;int i = 0" style="rounded=0;whiteSpace=wrap;html=1;fontColor=#0A0A0A;" vertex="1" parent="WIyWlLk6GJQsqaUBKTNV-1">
          <mxGeometry x="330" y="170" width="120" height="60" as="geometry" />
        </mxCell>
        <mxCell id="vWjAeTqxgq-_ZIZqtNwN-16" value="" style="edgeStyle=orthogonalEdgeStyle;rounded=0;orthogonalLoop=1;jettySize=auto;html=1;fontColor=#0A0A0A;" edge="1" parent="WIyWlLk6GJQsqaUBKTNV-1" source="vWjAeTqxgq-_ZIZqtNwN-12" target="vWjAeTqxgq-_ZIZqtNwN-15">
          <mxGeometry relative="1" as="geometry" />
        </mxCell>
        <mxCell id="vWjAeTqxgq-_ZIZqtNwN-19" value="" style="edgeStyle=orthogonalEdgeStyle;rounded=0;orthogonalLoop=1;jettySize=auto;html=1;fontColor=#0A0A0A;" edge="1" parent="WIyWlLk6GJQsqaUBKTNV-1" source="vWjAeTqxgq-_ZIZqtNwN-12" target="vWjAeTqxgq-_ZIZqtNwN-18">
          <mxGeometry relative="1" as="geometry" />
        </mxCell>
        <mxCell id="vWjAeTqxgq-_ZIZqtNwN-12" value="i &amp;lt;= array.length" style="rhombus;whiteSpace=wrap;html=1;fontColor=#0A0A0A;" vertex="1" parent="WIyWlLk6GJQsqaUBKTNV-1">
          <mxGeometry x="335" y="280" width="110" height="100" as="geometry" />
        </mxCell>
        <mxCell id="vWjAeTqxgq-_ZIZqtNwN-15" value="newarr" style="shape=document;whiteSpace=wrap;html=1;boundedLbl=1;fontColor=#0A0A0A;" vertex="1" parent="WIyWlLk6GJQsqaUBKTNV-1">
          <mxGeometry x="530" y="290" width="120" height="80" as="geometry" />
        </mxCell>
        <mxCell id="vWjAeTqxgq-_ZIZqtNwN-17" value="no" style="text;html=1;align=center;verticalAlign=middle;resizable=0;points=[];autosize=1;strokeColor=none;fillColor=none;fontColor=#0A0A0A;" vertex="1" parent="WIyWlLk6GJQsqaUBKTNV-1">
          <mxGeometry x="460" y="305" width="40" height="30" as="geometry" />
        </mxCell>
        <mxCell id="vWjAeTqxgq-_ZIZqtNwN-23" value="" style="edgeStyle=orthogonalEdgeStyle;rounded=0;orthogonalLoop=1;jettySize=auto;html=1;fontColor=#0B0F12;" edge="1" parent="WIyWlLk6GJQsqaUBKTNV-1" source="vWjAeTqxgq-_ZIZqtNwN-18" target="vWjAeTqxgq-_ZIZqtNwN-22">
          <mxGeometry relative="1" as="geometry" />
        </mxCell>
        <mxCell id="vWjAeTqxgq-_ZIZqtNwN-28" style="edgeStyle=orthogonalEdgeStyle;rounded=0;orthogonalLoop=1;jettySize=auto;html=1;exitX=1;exitY=0.5;exitDx=0;exitDy=0;entryX=1;entryY=0.5;entryDx=0;entryDy=0;fontColor=#0B0F12;" edge="1" parent="WIyWlLk6GJQsqaUBKTNV-1" source="vWjAeTqxgq-_ZIZqtNwN-18" target="vWjAeTqxgq-_ZIZqtNwN-26">
          <mxGeometry relative="1" as="geometry">
            <Array as="points">
              <mxPoint x="530" y="495" />
              <mxPoint x="530" y="740" />
            </Array>
          </mxGeometry>
        </mxCell>
        <mxCell id="vWjAeTqxgq-_ZIZqtNwN-18" value="&lt;font color=&quot;#0b0f12&quot;&gt;array[i].Length&amp;lt;=3&lt;/font&gt;" style="rhombus;whiteSpace=wrap;html=1;fontColor=#0A0A0A;" vertex="1" parent="WIyWlLk6GJQsqaUBKTNV-1">
          <mxGeometry x="305" y="440" width="170" height="110" as="geometry" />
        </mxCell>
        <mxCell id="vWjAeTqxgq-_ZIZqtNwN-20" value="yes" style="text;html=1;align=center;verticalAlign=middle;resizable=0;points=[];autosize=1;strokeColor=none;fillColor=none;fontColor=#0A0A0A;" vertex="1" parent="WIyWlLk6GJQsqaUBKTNV-1">
          <mxGeometry x="350" y="380" width="40" height="30" as="geometry" />
        </mxCell>
        <mxCell id="vWjAeTqxgq-_ZIZqtNwN-25" style="edgeStyle=orthogonalEdgeStyle;rounded=0;orthogonalLoop=1;jettySize=auto;html=1;fontColor=#0B0F12;entryX=0;entryY=0.5;entryDx=0;entryDy=0;exitX=0.5;exitY=1;exitDx=0;exitDy=0;" edge="1" parent="WIyWlLk6GJQsqaUBKTNV-1" source="vWjAeTqxgq-_ZIZqtNwN-26" target="vWjAeTqxgq-_ZIZqtNwN-12">
          <mxGeometry relative="1" as="geometry">
            <mxPoint x="230" y="480" as="targetPoint" />
            <Array as="points">
              <mxPoint x="390" y="810" />
              <mxPoint x="250" y="810" />
              <mxPoint x="250" y="330" />
            </Array>
          </mxGeometry>
        </mxCell>
        <mxCell id="vWjAeTqxgq-_ZIZqtNwN-27" value="" style="edgeStyle=orthogonalEdgeStyle;rounded=0;orthogonalLoop=1;jettySize=auto;html=1;fontColor=#0B0F12;" edge="1" parent="WIyWlLk6GJQsqaUBKTNV-1" source="vWjAeTqxgq-_ZIZqtNwN-22" target="vWjAeTqxgq-_ZIZqtNwN-26">
          <mxGeometry relative="1" as="geometry" />
        </mxCell>
        <mxCell id="vWjAeTqxgq-_ZIZqtNwN-22" value="newarr[i]=array[i]" style="rounded=0;whiteSpace=wrap;html=1;fontColor=#0B0F12;" vertex="1" parent="WIyWlLk6GJQsqaUBKTNV-1">
          <mxGeometry x="330" y="610" width="120" height="60" as="geometry" />
        </mxCell>
        <mxCell id="vWjAeTqxgq-_ZIZqtNwN-24" value="yes" style="text;html=1;align=center;verticalAlign=middle;resizable=0;points=[];autosize=1;strokeColor=none;fillColor=none;fontColor=#0B0F12;" vertex="1" parent="WIyWlLk6GJQsqaUBKTNV-1">
          <mxGeometry x="350" y="555" width="40" height="30" as="geometry" />
        </mxCell>
        <mxCell id="vWjAeTqxgq-_ZIZqtNwN-26" value="i++" style="rounded=0;whiteSpace=wrap;html=1;fontColor=#0B0F12;" vertex="1" parent="WIyWlLk6GJQsqaUBKTNV-1">
          <mxGeometry x="330" y="710" width="120" height="60" as="geometry" />
        </mxCell>
        <mxCell id="vWjAeTqxgq-_ZIZqtNwN-29" value="no" style="text;html=1;align=center;verticalAlign=middle;resizable=0;points=[];autosize=1;strokeColor=none;fillColor=none;fontColor=#0B0F12;" vertex="1" parent="WIyWlLk6GJQsqaUBKTNV-1">
          <mxGeometry x="475" y="475" width="40" height="30" as="geometry" />
        </mxCell>
      </root>
    </mxGraphModel>
  </diagram>
</mxfile>
